<?xml version="1.0" standalone="no"?>
<svg xmlns:xlink="http://www.w3.org/1999/xlink" id="wave" style="transform:rotate(0deg); transition: 0.3s" viewBox="0 0 1440 190" version="1.1" xmlns="http://www.w3.org/2000/svg"><defs><linearGradient id="sw-gradient-0" x1="0" x2="0" y1="1" y2="0"><stop stop-color="rgba(0, 10.628, 89.115, 1)" offset="0%"/><stop stop-color="rgba(0, 0, 0, 1)" offset="100%"/></linearGradient></defs><path style="transform:translate(0, 0px); opacity:1" fill="url(#sw-gradient-0)" d="M0,114L20,110.8C40,108,80,101,120,107.7C160,114,200,133,240,120.3C280,108,320,63,360,41.2C400,19,440,19,480,31.7C520,44,560,70,600,76C640,82,680,70,720,66.5C760,63,800,70,840,66.5C880,63,920,51,960,66.5C1000,82,1040,127,1080,139.3C1120,152,1160,133,1200,123.5C1240,114,1280,114,1320,98.2C1360,82,1400,51,1440,60.2C1480,70,1520,120,1560,126.7C1600,133,1640,95,1680,72.8C1720,51,1760,44,1800,41.2C1840,38,1880,38,1920,57C1960,76,2000,114,2040,114C2080,114,2120,76,2160,53.8C2200,32,2240,25,2280,25.3C2320,25,2360,32,2400,41.2C2440,51,2480,63,2520,60.2C2560,57,2600,38,2640,28.5C2680,19,2720,19,2760,28.5C2800,38,2840,57,2860,66.5L2880,76L2880,190L2860,190C2840,190,2800,190,2760,190C2720,190,2680,190,2640,190C2600,190,2560,190,2520,190C2480,190,2440,190,2400,190C2360,190,2320,190,2280,190C2240,190,2200,190,2160,190C2120,190,2080,190,2040,190C2000,190,1960,190,1920,190C1880,190,1840,190,1800,190C1760,190,1720,190,1680,190C1640,190,1600,190,1560,190C1520,190,1480,190,1440,190C1400,190,1360,190,1320,190C1280,190,1240,190,1200,190C1160,190,1120,190,1080,190C1040,190,1000,190,960,190C920,190,880,190,840,190C800,190,760,190,720,190C680,190,640,190,600,190C560,190,520,190,480,190C440,190,400,190,360,190C320,190,280,190,240,190C200,190,160,190,120,190C80,190,40,190,20,190L0,190Z"/></svg>